<svg enable-background="new 0 0 184.25 184.25" height="184.25" viewBox="0 0 184.25 184.25" width="184.25" xmlns="http://www.w3.org/2000/svg"><path d="m96.013 1.417v28.663l52.263 29.757v63.581l-52.263 30.83v28.586l77.027-43.891v-94.363z" fill="#008337"/><path d="m88.15 1.417-76.94 43.163v94.363l76.94 43.891v-28.586l-52.268-30.83v-63.581l52.268-29.757z" fill="#50ae30"/><g fill="#008337"><path d="m47.438 76.988h7.897l7.763 20.586h.089l7.898-20.586h7.41l-12.955 31.412h-5.547z"/><path d="m88.695 89.986h4.081c2.527 0 5.813-.085 5.813-3.505 0-3.149-2.84-3.637-5.37-3.637h-4.524zm-6.921-12.998h12.156c6.433 0 11.845 2.218 11.845 9.538 0 4.393-2.35 7.81-6.787 8.609l7.986 13.266h-8.296l-6.566-12.557h-3.417v12.556h-6.921z"/><path d="m117.441 89.986h4.083c2.528 0 5.813-.085 5.813-3.505 0-3.149-2.84-3.637-5.372-3.637h-4.524zm-6.92-12.998h12.158c6.431 0 11.845 2.218 11.845 9.538 0 4.393-2.35 7.81-6.788 8.609l7.987 13.266h-8.296l-6.57-12.557h-3.415v12.556h-6.921z"/></g></svg>