<svg id="Calque_1" data-name="Calque 1" xmlns="http://www.w3.org/2000/svg" xmlns:xlink="http://www.w3.org/1999/xlink" viewBox="0 0 419.53 124.46">
    <defs>
        <style type="text/css">.cls-1{fill:red;}.cls-2{fill:url(#Dégradé_sans_nom_22);}</style>
        <linearGradient id="Dégradé_sans_nom_22" x1="74.03" y1="80.02" x2="119.14" y2="96" gradientUnits="userSpaceOnUse">
            <stop offset="0" stop-color="red" />
            <stop offset="0.15" stop-color="red" stop-opacity="0.99" />
            <stop offset="0.27" stop-color="red" stop-opacity="0.95" />
            <stop offset="0.38" stop-color="red" stop-opacity="0.89" />
            <stop offset="0.47" stop-color="red" stop-opacity="0.79" />
            <stop offset="0.57" stop-color="red" stop-opacity="0.68" />
            <stop offset="0.66" stop-color="red" stop-opacity="0.53" />
            <stop offset="0.74" stop-color="red" stop-opacity="0.36" />
            <stop offset="0.83" stop-color="red" stop-opacity="0.17" />
            <stop offset="0.89" stop-color="red" stop-opacity="0" />
        </linearGradient>
    </defs>
    <title>tra_logo_rvb</title>
    <path class="cls-1" d="M443.91,73.71a70.23,70.23,0,0,1-12.07,28.81h-.27l-12.8-28.81h-8.51l7,15.55c-2.74,6.95-9.78,16.64-21.4,16.64-6.85,0-10.88-3.29-11.79-8.87a32.89,32.89,0,0,0,8.41.83c7.59,0,16.28-3.57,16.28-13.54,0-7.59-5.76-11.79-13.45-11.79-11.7,0-19.74,7.4-19.74,20.39a23.64,23.64,0,0,0,2.46,11.25,9.13,9.13,0,0,1-5.39,1.83c-2.65,0-4.3-.74-4.3-4.76V61.37h-7.95V74.18a20.16,20.16,0,0,0-8.14-1.65c-13.72,0-20.21,9-20.21,20.94,0,11.52,5.85,19.66,17.46,19.66,5.69,0,9.88-1.92,12.29-4.77,1.83,3.49,5.32,4.77,9.84,4.77a22,22,0,0,0,11.5-3.3c3.29,2.2,7.57,3.3,12.64,3.3,14.72,0,21.95-10.15,25.15-16.1l7,15.09h5.48c8.88-9.88,16-25.6,18.57-38.41ZM350,105.81c-6.4,0-9.6-5.58-9.6-12.34,0-8.6,3.47-13.63,11.71-13.63a16.81,16.81,0,0,1,8.32,1.91v19.67c0,.1,0,.19,0,.28C358.36,104.27,354.62,105.81,350,105.81ZM394.9,79c4.2,0,6.22,1.92,6.22,5.39,0,5.76-4.39,7-9.79,7a21.78,21.78,0,0,1-7.49-1C384,83.13,388.87,79,394.9,79Z" transform="translate(-32.43 -32.44)" />
    <path class="cls-1" d="M213.65,73.63c-5.25-.27-10.79.75-15.56,4.51l0,2.17v22.1a15.32,15.32,0,0,1-9.57,3.72c-5.74,0-9.38-3.47-10.42-8.62a18.27,18.27,0,0,1-.38-3.85h0V82h12.7V75h-12.7V63.18H170V75h-9.17V82H170V93.54h0a24.84,24.84,0,0,0,.51,4.95,17.68,17.68,0,0,0,17.85,14.64h0A18.33,18.33,0,0,0,198.78,110v2.13h7.14V82.89A15.21,15.21,0,0,1,213.47,81a14.76,14.76,0,0,1,5.3,1l3.31-6.79A30.07,30.07,0,0,0,213.65,73.63Z" transform="translate(-32.43 -32.44)" />
    <path class="cls-1" d="M329.05,101c0-7.77-5.66-9.68-10.76-10.86-4.32-1-10.09-1.19-10.09-4.93s4-5,6.44-5c4.18,0,7.06,1.14,10.48,2.9l3-6a30.16,30.16,0,0,0-13.29-3.47c-6.47,0-14,3.59-14,11.59s5.89,9.43,12.55,10.74c4,.79,7.28,1.76,7.57,5.18h0s.79,5.19-8.59,5.19h-10c-5.85,0-6.08-2.56-6.08-6.11,0-1.88,0-12.14,0-12.14,0-11.08-8.39-14-15.54-14-6.55,0-12.55,2-15.81,4.17V105.2c0,.8-2.6,1.26-3.94,1.27s-4.15-.93-4.15-2.59V78.14l-1.48-.89A32.61,32.61,0,0,0,240.62,74c-7,0-12.5,2.51-16,7.26-3.31,4.5-4.4,10.6-3.08,17.17a18.1,18.1,0,0,0,18.17,14.74h.06A16.33,16.33,0,0,0,251,109.05c2.17,2.58,6,4.08,10.36,4.08A18.65,18.65,0,0,0,272.86,109V82.56a19,19,0,0,1,8.35-1.62c4.93,0,7.7,1.54,7.7,8.45h0v11.74c0,4.77.76,11.74,12.22,11.74H314c8.74,0,12.4-4,13.93-7.37a9.44,9.44,0,0,0,1.11-4.42V101Zm-79.82,1.28a14.54,14.54,0,0,1-9.61,3.8c-6.27,0-9.41-4.49-10.26-8.7-1-4.9-.18-9.26,2.29-12.27,2.2-2.7,5.52-4.13,9.59-4.13h0a28.18,28.18,0,0,1,8,1.25C249.23,84.87,249.22,100.21,249.23,102.29Z" transform="translate(-32.43 -32.44)" />
    <path class="cls-1" d="M125.79,47.67a8.11,8.11,0,1,0-11-3.25A8.11,8.11,0,0,0,125.79,47.67Z" transform="translate(-32.43 -32.44)" />
    <path class="cls-1" d="M155.41,52.53c-.24-1.33-1.57-2.25-4.63-1.87-19.22,2.4-30.07,4.13-69.18,8.4-3.2.35-5.88.8-6.18,3-.49,3.52,8.64,3.75,15,5.25a40.83,40.83,0,0,1,9.4,3.11,2.12,2.12,0,0,1,.91,3.41C93.3,84.6,83.29,99.89,80.47,105.4s1.92,8.21,6.56,4.09c11-9.78,14.4-14.18,24.25-21.89,1.35-1.06,2.42-.83,2.78.78.19.89.4,2,.59,3.41a28.84,28.84,0,0,1,0,6l0,.2c0,.47-.09,1.07-.17,1.81-1.23,11.14-8.11,22.77-15.53,29.7a47,47,0,0,0,18.79-12.18l.08,0a37.81,37.81,0,0,0,3.17-3.86A47.46,47.46,0,0,0,129.57,93a51.63,51.63,0,0,0,.76-5.22c1.5-15.9,8.14-21.62,21.82-30.1C154.25,56.41,155.77,54.49,155.41,52.53Z" transform="translate(-32.43 -32.44)" />
    <path class="cls-2" d="M109.14,111.67a31.57,31.57,0,0,1-13.85,10.6A38.37,38.37,0,0,1,74.74,124c-1.35-.24-2.66-.55-3.95-.91A42.06,42.06,0,0,1,89.62,41.19h0A3.84,3.84,0,0,0,91,33.63a49.73,49.73,0,0,0-20.85,97.19c1.07.27,2.15.52,3.26.72a50.36,50.36,0,0,0,25.53-2c7.42-6.93,14.3-18.56,15.53-29.7.08-.74.14-1.34.17-1.81A28,28,0,0,1,109.14,111.67Z" transform="translate(-32.43 -32.44)" />
</svg>